<?xml version="1.0" standalone="no"?>
<!DOCTYPE svg PUBLIC "-//W3C//DTD SVG 1.1//EN" "http://www.w3.org/Graphics/SVG/1.1/DTD/svg11.dtd" >
<svg xmlns="http://www.w3.org/2000/svg" xmlns:xlink="http://www.w3.org/1999/xlink" version="1.1">
<metadata>
Created by FontForge 20170731 at Sat Aug  5 17:42:41 2017
 By Aleksey,,,
 Imagex 2017
</metadata>
<defs>
<font id="CrackedCode" horiz-adv-x="1831" >
  <font-face 
    font-family="Cracked Code"
    font-weight="400"
    font-stretch="normal"
    units-per-em="2048"
    panose-1="3 0 6 0 0 0 0 0 0 0"
    ascent="1638"
    descent="-410"
    cap-height="2306"
    bbox="-4 -630 2651 2646"
    underline-thickness="150"
    underline-position="-442"
    unicode-range="U+0020-005A"
  />
<missing-glyph horiz-adv-x="1607" 
d="M0 0v2301h1657v-2301h-1657zM80 80h1497v2141h-1497v-2141z" />
    <glyph glyph-name=".notdef" horiz-adv-x="1607" 
d="M0 0v2301h1657v-2301h-1657zM80 80h1497v2141h-1497v-2141z" />
    <glyph glyph-name=".null" horiz-adv-x="0" 
 />
    <glyph glyph-name="nonmarkingreturn" horiz-adv-x="550" 
 />
    <glyph glyph-name="space" unicode=" " horiz-adv-x="819" 
 />
    <glyph glyph-name="space" unicode="&#xa0;" horiz-adv-x="819" 
 />
    <glyph glyph-name="exclam" unicode="!" horiz-adv-x="664" 
d="M84 2306h574v-75h-75v-210h75v-761h-75v-60h75v-630h-75v-178h-583v178h75v630h-75v60h75v761h-75v210h75v65q1 10 9 10zM331 294h56q218 0 257 -135q9 -48 14 -93h56v-89q0 -76 -14 -140h-61q-45 -131 -191 -131h-168q-143 0 -191 122q-19 38 -19 102v136q0 180 154 219
q50 9 107 9zM322 66v-229h56v229h-56z" />
    <glyph glyph-name="numbersign" unicode="#" horiz-adv-x="2489" 
d="M1059 2348l556 -248q-42 -121 -52 -121h-74q-8 0 -33 -70h84q-11 -31 -93 -233h182l88 233h-84q28 62 28 70h80q10 0 140 345q29 -4 560 -200q-52 -142 -61 -145h-75q-7 0 -32 -70h84v-5q-61 -148 -89 -228h201v-89h-84v-70h84v-154h70v-271h-430q0 -8 -32 -93h-66
q-11 0 -37 -84h280q9 -1 9 -9v-570q0 -9 -9 -9h-509l-266 -691q-522 234 -555 257q168 424 168 434h-177l-56 -154h-89q0 -12 -70 -182h84v-5q-128 -323 -135 -326q-503 182 -551 205q0 5 47 126h-84q70 175 70 182h79q11 2 65 154h-191v210h-84v140h84v229q1 9 9 9h411
q65 169 65 177h-256q-10 0 -10 10v415h-84v70h84v79q2 10 10 10h480q10 0 94 233h-80l24 70h79q13 9 149 369zM1806 1363v-364h70v364h-70zM1148 915h182l65 177h-172q-10 0 -75 -177z" />
    <glyph glyph-name="dollar" unicode="$" horiz-adv-x="1737" 
d="M588 2642h583v-75h-84v-140h84v-117q170 0 313 -70q131 -78 182 -205h65q12 0 42 -126h-70q10 -73 10 -126v-378h-103v238h-84v-238q-338 -5 -485 -5l-5 10v233h79q0 75 -158 75h-112q-136 0 -154 -52q-14 -30 -14 -65v-187q0 -107 126 -107h364q376 0 494 -261
q56 -111 56 -336v-131h70v-182h-70v-70q-2 -238 -23 -238h-79q0 -39 -47 -140h84q-128 -243 -481 -243v-322q0 -9 -9 -9h-574v331q-148 0 -275 61q-128 78 -168 182h-89q-28 78 -42 140h84q-14 97 -14 205v103h-84v126h84v121h593v-121h-84v-126h84q0 -98 121 -98h201
q121 0 121 98h70v182h-70v47q0 88 -117 88h-368q-392 0 -509 276q-28 67 -42 191h-84v280h84v303q0 60 9 145h75q0 41 33 126h-70q115 262 457 271v121h-84v140h84v75zM476 1461v-280h84v280h-84z" />
    <glyph glyph-name="percent" unicode="%" horiz-adv-x="2349" 
d="M1601 2320h9q270 -177 285 -182v-5h-80v-5q14 0 210 -135q-51 -90 -51 -98h79v-5q-399 -750 -429 -793h-75q-18 -21 -93 -163v-5h79v-5l-130 -242h4q106 112 290 112h312q257 0 350 -206q38 -80 38 -196v-294q0 -294 -257 -373q-67 -19 -131 -19h-312q-270 0 -364 234
q-24 91 -24 154v312q0 70 19 126v5h-5l-205 -392h65v-5q-85 -164 -107 -191h-61q-28 -37 -163 -299h-5l-522 257q18 34 18 42h75q0 5 103 196h-70l415 784h-84q76 152 93 168h75q6 2 131 238h-5q-108 -117 -313 -117h-270q-305 0 -388 243q-23 81 -23 168v266h-84v5
q0 150 56 233h75q86 117 182 149q98 28 228 28h178q312 0 401 -177h-84q51 -97 51 -210v-28h84v-299q0 -55 -18 -121h4l220 420h-80v5l122 233h88z" />
    <glyph glyph-name="ampersand" unicode="&#x26;" horiz-adv-x="1756" 
d="M602 2646h569q10 -1 10 -9v-98h70v-140h-70v-93h555v-117h70v-70h-70v-397h-803l551 -457q-233 -370 -233 -378h-364v266h-84v-266h-66q-144 0 -144 -98v-98h84v-299q0 -93 121 -93h229q121 0 121 93v248h593v-383q0 -138 -38 -252h-79q-5 0 -42 -79q-5 0 -5 -5h84
q-129 -215 -480 -215v-93h-84v-112h84v-117q0 -9 -10 -9h-569q-9 0 -9 9v117h-84v112h84v93q-172 0 -332 103q-61 53 -102 112h-84l-38 84h84q-37 112 -37 233v453h-84v257q5 185 28 205h79q13 111 131 238q126 79 215 79q-348 273 -350 280v369h70v70h-70v117h490v93h70
v140h-70v98q1 9 9 9z" />
    <glyph glyph-name="comma" unicode="," horiz-adv-x="701" 
d="M261 341q480 -131 490 -140q-18 -52 -18 -61h-98q0 -10 -33 -98h93l-126 -350h-93q-19 -52 -19 -60h89v-5q-75 -217 -93 -257q-384 103 -397 103q19 96 37 159h-93v4q8 56 19 56h88q0 11 80 350h-94q19 98 28 98h89q41 201 51 201z" />
    <glyph glyph-name="hyphen" unicode="-" horiz-adv-x="1233" 
d="M98 1270h1101v-75h-98v-210h98v-196h84v-70h-84v-42h-1092q-9 0 -9 9v33h84v70h-84v196h-98v210h98v75z" />
    <glyph glyph-name="period" unicode="." horiz-adv-x="585" 
d="M317 299h56q168 0 220 -70q28 -36 37 -75h-56q14 -40 14 -121v-51q0 -33 -5 -103h52v-5q0 -87 -112 -144q-42 -19 -89 -19h-65v168h-56v-168h-103q-143 0 -191 121q-19 39 -19 103v135q0 38 9 84h52q8 1 28 56q56 89 228 89z" />
    <glyph glyph-name="zero" unicode="0" horiz-adv-x="1812" 
d="M728 2296h448q293 0 420 -107h224q6 0 42 -42h-219q126 -146 126 -378v-378h84v-294h-84v-378h-140v-112h140v-387q0 -66 -10 -117h84q0 -72 -84 -224h-84q-134 -187 -490 -187h-462q-360 0 -485 187h79v5q-68 104 -84 219h-84q-9 62 -9 121v383h-140v112h140v1031
q0 40 5 117h-122v5q9 111 80 228l9 5h117l42 42h219q37 37 47 37v5h-220q121 107 411 107zM1022 2105v-238h126v238h-126zM733 1587v-196h84v-294h-84v-378h-140v-112h140v-210q0 -112 116 -112h206q121 0 121 93v229h-140v112h140v378h84v294h-84v219q0 94 -154 94h-121
q-136 0 -154 -52q-14 -30 -14 -65zM541 1391v-294h84v294h-84z" />
    <glyph glyph-name="one" unicode="1" horiz-adv-x="1215" 
d="M630 2296h541q10 -1 10 -9v-42h84v-98h-84v-1428h-140v-112h140v-392h-126v-317h126v-206h-584v206h-126v317h126v392h-140v112h140v504h-56v196h56v84l-84 -84h-56q0 -8 -130 -145q-152 140 -159 140v5h51q-42 47 -219 201q49 63 490 527h79q72 73 89 98h-79q0 6 51 51z
" />
    <glyph glyph-name="two" unicode="2" horiz-adv-x="1840" 
d="M1806 185v-362h84v-84h-84v-37q0 -10 -9 -10h-1620v47h84v84h-84v98h-140v210h140v54h1629zM177 224v434q0 33 5 103h-56l9 56h56q10 51 42 140h-233v5q24 65 126 149h238q138 98 350 98h378q126 0 126 112h-126v140h126v117q0 126 -135 126h-145q-136 0 -154 -52
q-14 -28 -14 -88v-196h-588v415q0 57 14 140h79q7 6 38 98h-84q46 123 186 210q133 65 360 65h448q413 0 532 -252q3 -23 14 -23h79q15 -38 28 -98h-84q19 -69 19 -187v-275h-126v-140h126v-210h-238q-10 -123 -24 -154h238v-5q0 -22 -56 -135h-56q-46 -53 -46 -56h51
q-133 -145 -425 -145h-373q-112 0 -112 -126v-210h1027q9 -1 9 -9v-47h-1629z" />
    <glyph glyph-name="three" unicode="3" horiz-adv-x="1849" 
d="M140 2292h1036v-364h126v364h462q9 -2 9 -10v-84h-140v-210h140v-256q-120 -102 -354 -276v-4q162 0 284 -154q10 -16 10 -24h84q31 -37 60 -154h-84q19 -102 19 -205v-467h-56v-84h56v-144q0 -25 -5 -80h112q0 -12 -9 -56h-112q0 -58 -65 -182h-122l-70 -84h122
q-112 -130 -504 -130h-350q-377 0 -490 116l-19 14h-121q-46 39 -70 84h126q-54 89 -66 182h112q-4 5 -9 56h-112l-5 56v308h84v84h-84v28q2 10 10 10h574q9 -2 9 -10v-28h84v-84h-84v-130q0 -94 135 -94h196q126 5 126 56q6 0 14 28h-56v84h56v322q0 98 -126 98h-438
q-99 141 -243 383q520 426 546 453h-798v284h-140v210h140v94z" />
    <glyph glyph-name="four" unicode="4" horiz-adv-x="1924" 
d="M1314 1726q-278 -456 -278 -461h79l-98 -168h-84q-5 -1 -116 -187h401v187h84v168h-84v215h588v-215h84v-168h-84v-448h-112v-210h112v-196h168v-98h-168v-56h-98v-70h98v-126h84v-126h-84v-61q0 -9 -9 -9h-579v70h84v126h-84v126h-98v70h98v56h168v98h-168v79h-1097
q-9 0 -9 10v107h-112v210h112v229q131 210 131 219h84q37 46 102 168h-79q158 260 280 461h684zM645 1750q141 232 232 381h593l70 -35q-120 -196 -211 -346h-684zM901 2170q80 130 116 187l375 -187h-491z" />
    <glyph glyph-name="five" unicode="5" 
d="M182 2301h1605v-56h-112v-84h112v-448h-345v210h-98v-210h-686v-112h98v-89q28 10 121 10h350q348 0 481 -196v-5h-79q32 -56 32 -70h89q47 -128 47 -257v-289h84v-322h-84v-159q0 -365 -285 -480q-93 -47 -378 -47h-313q-351 0 -466 98q-42 28 -98 98h-80
q-58 76 -79 196h84q-14 58 -14 154v266h-168v70h168v47q1 9 9 9h574q10 -1 10 -9v-47h-168v-70h168v-126q0 -93 140 -93h163q106 0 126 51q14 29 14 42h84v322h-84v112q0 92 -84 107q-31 5 -61 5h-154q-149 0 -149 -131l-583 173v280h-84v70h84v280h-98v322h98v238h-112v84
h112v47q1 9 9 9z" />
    <glyph glyph-name="six" unicode="6" horiz-adv-x="1761" 
d="M714 2301h453q340 0 480 -168h75q69 -73 89 -168h-84q9 -24 23 -98h-98q5 -59 5 -70h98v-252h56v-84h-56v-61q0 -9 -10 -9h-574q-9 0 -9 9v61h56v84h-56v70q0 93 -154 93h-121q-136 0 -154 -51q-14 -31 -14 -65v-47h56v-84h-56v-154h396q389 0 500 -140
q140 -135 140 -387v-556q0 -97 -28 -205h-89q0 -59 -103 -182h80q-123 -140 -444 -140h-462q-314 0 -448 140h-79q-99 103 -107 182h79q-28 114 -28 210v5h-126v289h126v406h-112v196h112v336h56v84h-56v252h-98q5 47 5 70h93q9 0 23 98h89q19 85 79 163v5h-79
q128 168 476 168zM719 714v-191h-126v-121q0 -112 116 -112h28v-56h126v56h178q88 0 116 56l5 32v248q0 88 -140 88h-303z" />
    <glyph glyph-name="seven" unicode="7" horiz-adv-x="1677" 
d="M725 -135l-30 -70h108v-5q-42 -88 -42 -93h-649v5q42 87 42 93h-107q14 44 27 70h651zM199 -104q14 17 58 123h-80l33 84h89q46 104 46 112h89q0 5 37 84h-84q25 54 49 106h659l-50 -106h80q0 -24 -42 -84h-75q-8 0 -37 -75q-19 -37 -24 -37h-74q-12 0 -42 -84h79v-5
q-38 -72 -55 -118h-656zM443 420q444 963 444 971h-80v5q42 99 75 149h79q0 6 75 163h-915q-9 0 -9 10v163h-112v280h112v126q1 9 9 9h1596l10 -4q-5 -70 -5 -103v-448q-62 -157 -93 -196h-75q-8 0 -75 -154h80v-5l-457 -966h-659zM1213 2161v-280h112v280h-112z" />
    <glyph glyph-name="eight" unicode="8" horiz-adv-x="1803" 
d="M706 1665q-15 -22 -15 -55v-135h-98v-9q0 -140 107 -154h173v-187h98v187h74q108 0 108 210v60q0 131 -136 131h-177q-79 0 -116 -29h-626v76q0 193 61 289h102l66 98h-108q126 159 467 159h462q345 0 476 -159h107q53 -52 66 -98h-108q52 -133 52 -257v-480
q0 -197 -117 -308q117 -115 117 -299v-140h112v-56h-112v-280h84v-51l-5 -33h-84q0 -109 -89 -257q-130 -186 -490 -186h-476q-428 0 -536 275q-42 121 -42 168h84q-5 47 -5 70v14h-84v453q0 206 117 322q-72 79 -80 121h-102q-33 104 -33 201v149h98v190h608zM691 537v-149
q0 -94 121 -94h215q80 0 112 47q14 41 14 93v75h112v9l-5 47h-112q-15 145 -112 145h-233q-72 0 -103 -89q-9 -47 -9 -84z" />
    <glyph glyph-name="nine" unicode="9" horiz-adv-x="1719" 
d="M616 2306h448q441 0 541 -271h89q28 -85 28 -98h-84q19 -65 19 -159v-1353h112v-196q0 -71 -10 -112h-112q0 -53 -56 -182h-102q0 -11 -42 -70h93q-126 -163 -467 -163h-462q-332 0 -471 163h-98q-42 60 -42 70h93v5q-65 128 -65 294v368q1 10 9 10h574q10 -2 10 -10
v-214q0 -94 149 -94h65v-177h112v177h75q111 0 140 47q14 36 14 65v19h-112v271h-411q-340 0 -462 116q-163 136 -163 430v149h112v168h-112v201q0 390 289 504q118 42 299 42zM621 1620v-61h112v-168h-112v-9q0 -94 126 -94h317v313q0 112 -117 112h-205q-121 0 -121 -93z
" />
    <glyph glyph-name="colon" unicode=":" horiz-adv-x="687" 
d="M210 1130h168q149 0 196 -140q9 -28 14 -84h149v-126l-4 -47h-150q0 -106 -107 -168q-60 -23 -149 -23h-66q-207 0 -247 130q-14 49 -14 98v136q0 160 126 210q50 14 84 14zM261 299h56q219 0 252 -131q13 -29 19 -102h149v-61h-149v-23q0 -215 -126 -257
q-53 -14 -84 -14h-168q-143 0 -191 121q-19 39 -19 103v70h149v61h-149v4q0 181 154 220q50 9 107 9z" />
    <glyph glyph-name="semicolon" unicode=";" horiz-adv-x="823" 
d="M369 1130h168q145 0 196 -131q14 -47 14 -107v-117q0 -165 -122 -215q-60 -18 -140 -18h-65q-175 0 -224 88q-37 52 -37 159v98q0 193 144 233q35 10 66 10zM280 341q479 -131 490 -140l-47 -135h150q-20 -61 -28 -61h-145q-72 -214 -84 -219h-70q-131 -377 -149 -416
q-384 103 -397 103l70 313h70q9 0 56 219h149q14 53 14 61h-149l65 275h5z" />
    <glyph glyph-name="question" unicode="?" horiz-adv-x="1747" 
d="M663 2306h448q356 0 480 -168h-70v-5q38 -56 42 -56h66q29 -24 51 -126h98q14 -79 14 -98h-93l4 -33v-354h94v-229h-94v-28q0 -104 -32 -229h88q-12 -53 -28 -60h-84q-75 -128 -172 -168q-102 -47 -266 -47q-61 -34 -61 -75v-228q0 -10 -9 -10q-434 5 -588 5v149h-75v192
h75v4q0 63 14 178h98q0 20 14 60h-94q48 153 168 234q139 88 341 88h5q14 0 14 108v191q0 74 -56 98q-28 14 -98 14h-136q-154 0 -154 -93v-215q0 -9 -9 -9h-583v121h-75v173h75v116l4 47h94l14 98h-89q3 40 47 126h-75q25 47 47 61h65q140 168 481 168zM1451 1466v-229h94
v229h-94zM831 294h56q186 0 233 -88q12 -17 28 -66h93q10 -51 10 -116v-94h-94q0 -163 -140 -214q-44 -10 -70 -10h-168q-142 0 -191 122q-19 45 -19 102h94v136q0 54 9 74h-93v5q21 80 88 121q66 28 164 28z" />
    <glyph glyph-name="A" unicode="A" horiz-adv-x="2196" 
d="M1605 1713l150 -481h205q13 -52 75 -242h-201q215 -665 266 -831h75q7 -1 70 -196h-80v-5q38 -112 38 -121h135q7 0 19 -37h-140q28 -84 28 -98h-616l-28 98h140q-12 37 -19 37h-135q-38 113 -38 126h75v5q-19 70 -28 70h-798l-23 -75h-75q-9 0 -42 -126h135v-5l-9 -32
h-140q-28 -85 -28 -98h-616q0 12 79 261h75q11 0 65 196h-74v5l168 527h-89q47 143 47 154h93q19 73 187 588h-266l14 51h261q8 0 80 229h965zM805 2012q5 21 21 70h-229q67 213 75 214h588q0 -12 65 -214h224q8 0 29 -70h-773zM1359 1978q52 -160 73 -231h-941l72 231h796z
M994 1484v-51h266v51h-266zM1115 1284l-135 -439h-93l-47 -154h89l-47 -140h476q-42 124 -42 140h-93l-47 154h89q-28 79 -47 145h201q-76 242 -84 242h-196q-14 43 -14 52h-10z" />
    <glyph glyph-name="B" unicode="B" horiz-adv-x="1915" 
d="M163 2296h1050q380 0 500 -186q28 -33 28 -47h140q53 -122 56 -191h-136q10 -48 10 -150v-266h154v-46h-154v-66q0 -247 -122 -354q50 -43 66 -75v-5h-47v-4q51 -91 51 -262v-116h52v-271q0 -267 -117 -406h98q-59 -70 -89 -70h-79q-8 0 -84 -37q-103 -52 -341 -52h-1036
v89h103v70h-103v201h-135v130h135v346h-51v382h51v537h-163v168h163v257h136v191h-136v233zM756 1704v-89h-163v-168h163v-84h-117v-182h150v182h116v-61h201q70 0 103 89q9 47 9 84v112q0 117 -149 117h-313zM705 700v-172h51v-243h341q121 10 121 103v140h-51
q0 127 -84 168l-33 4h-345z" />
    <glyph glyph-name="C" unicode="C" horiz-adv-x="1845" 
d="M1542 -130q-16 -21 -32 -38q-128 -140 -462 -140h-424q-380 0 -507 178h1425zM199 -92l-2 4q-70 125 -70 233h-122q-9 0 -9 9v47h126v574h112v224h-112v579h-107v261h112v5q0 87 60 224h-163v4q30 52 47 61h168q111 163 490 163h424q411 0 528 -228q65 -140 65 -229h-107
l4 -56v-205h108v-75h121v-70h-121v-47h-593v192h-107v14q0 112 -150 112h-121q-130 0 -159 -47q-14 -42 -14 -56v-23h108v-579h112v-224h-112v-378q0 -112 126 -112h196q121 0 121 112v33h-112v65h112v135h593v-135h-112v-65h112v-178q0 -101 -14 -168h158
q-29 -135 -46 -135h-150q-13 -22 -26 -41h-1474z" />
    <glyph glyph-name="D" unicode="D" 
d="M1106 1105v59h588v-59h-588zM1694 263v-62q0 -73 -19 -159h206q-14 -42 -14 -51h-210q0 -32 -61 -121h84q-41 -58 -93 -89h-70q-11 0 -98 -47q-110 -46 -332 -46h-1022v575h1629zM65 312v589h-65v145h65v118h593v-118h-65v-145h65v-589h-593zM1076 312q15 15 21 38
q9 21 9 75v654h588v-767h-618zM1106 1198v221h-182v37h182v89q0 149 -103 149q-29 5 -79 5h-266v-501h-593v888h98v206h1022q407 0 523 -201v-5h-93q79 -140 79 -308v-322h-182v-37h182v-221h-588z" />
    <glyph glyph-name="E" unicode="E" horiz-adv-x="1910" 
d="M803 1568v-102h-89v-80h140v-93h714v-121h-140v-215h187v-247h-714v-75h-126v-56h126v-168h-187v-131h1022v-84h187v-32h-187v-318h107v-149h-812v149h-107v-149h-798v154h-126v261h126v299h187v168h-126v56h126v322h-187v215h140v214h-140v182h677zM126 1591v58h588v-58
h-588zM126 1701v171h-98v51h98v378h1610v-168h224v-163h-224v-47h-98v-51h98v-159h-1022v-12h-588zM896 2133v-163h224v163h-224zM317 112v-261h126v261h-126z" />
    <glyph glyph-name="F" unicode="F" horiz-adv-x="1915" 
d="M0 2301h1610v-397h355v-191h-1022v-140h93v-79h-93v-201h714v-261h93v-136h-93v-186h-714v-500h-280v-135h280v-201h93v-60h-93v-117h-588v117h93v60h-93v201h-280v135h280v1284h93v79h-93v331h-355v397z" />
    <glyph glyph-name="G" unicode="G" horiz-adv-x="1933" 
d="M765 2301h243v-303h168v303h215q449 0 546 -280q9 0 9 -23h-163q32 -123 32 -224v-346h-592v173q0 107 -150 107h-140q-163 0 -163 -79q-8 0 -9 -70v-453h135v168h919v-168h168v-60h-168v-462h-168v-117h168v-280l-4 -33h93v-4q0 -151 -126 -313q-114 -98 -243 -121
q-80 -19 -238 -19h-415q-406 0 -518 182l-14 9h-159q-7 0 -28 38v4h164v5q-43 77 -61 219h-93q-5 78 -5 117v196h-168v117h168v462h168v60h-168v626q0 39 5 116h-168l9 61h168q4 56 61 173q118 219 522 219zM761 1046v-462h-168v-117h168v-23q0 -131 46 -131q0 -19 84 -23
h206q126 0 126 93v84h-168v117h168v116h-327v346h-135z" />
    <glyph glyph-name="H" unicode="H" horiz-adv-x="2106" 
d="M131 2301h583v-224h-131v-173h131v-294h131v-247h-131v-70h518v313h-131v79h131v616h588v-616h-131v-79h131v-537h336v-61h-336v-536h-131v-229h131v-182h131v-42h-131v-322h-588v322h131v42h-131v182h-131v229h131v252h-518v-252h-131v-229h131v-182h131v-42h-131v-322
h-583v322h130v42h-130v182h-131v229h131v1432h-131v173h131v224zM294 1610v-247h131v247h-131zM1022 1069v-61h336v61h-336z" />
    <glyph glyph-name="I" unicode="I" horiz-adv-x="776" 
d="M714 1811v-457h112v-285h-112v-238h-131v-527h131v-388h-131v-60h131v-154h-583v154h-131v60h131v388h-131v527h131v611h-131v61h131v308h583zM0 1867v271h131v168h583v-168h-131v-271h-583zM364 1354v-285h112v285h-112z" />
    <glyph glyph-name="J" unicode="J" horiz-adv-x="1863" 
d="M1139 2320h588v-220h186v-434h-186v-163h-131v-61h131v-387h186v-42h-186v-789q0 -360 -285 -480q-117 -42 -336 -42h-341q-433 0 -536 177q-35 32 -42 70h-136q-32 75 -46 196q-5 0 -5 14v93h131v761h186v42h-186v70h592v-70h187v-42h-187v-593q0 -126 131 -126h140
q100 0 131 52q14 41 14 102v565h186v42h-186v387h-131v61h131v817zM1409 2100v-434h187v434h-187zM499 252v-303h131v303h-131z" />
    <glyph glyph-name="K" unicode="K" horiz-adv-x="1938" 
d="M1392 602q90 -147 237 -387h-150q94 -154 98 -154h150q113 -197 158 -257h84q10 -2 19 -23h-89v-5l47 -79h-714q0 4 -42 84h89q-10 15 -10 23h-93q-4 0 -154 257h-145q-7 2 -93 154h149q-152 263 -158 266v-677h93v-23h-93v-79h-626v79h94v23h-94v649h-149v98h149v51
h1243zM149 624v175h1120q31 -48 110 -175h-1230zM56 869v149h93v238h-149v60h149v990h626v-224h93v-304h-93v-336h4l182 336h98q13 32 164 299v5h-89v4q110 205 121 210h682l-122 -214h94q-165 -281 -173 -304h-98l-261 -462h-154q0 -6 -33 -60h149q-135 -238 -140 -238h-93
q0 -7 -28 -56q36 -60 56 -93h-1078zM1176 835q7 -13 12 -21h-1095v21h1083zM583 2082v-304h94v304h-94z" />
    <glyph glyph-name="L" unicode="L" horiz-adv-x="1961" 
d="M504 2306h588v-210h-317v-1228h317v-42h-317v-541h919v-313h317v-116h-317v-154h-1507v434h-187v42h187v648h317v42h-317v294h-187v322h187v612h317v210zM336 1484v-322h187v322h-187zM425 -28v-116h317v116h-317z" />
    <glyph glyph-name="M" unicode="M" horiz-adv-x="2573" 
d="M756 -15v-288h-588v288h588zM168 12v49h-168v42h168v593h-168v266h168v704h149v285h-149v242h643q45 -94 118 -242h144q14 -14 140 -285h-144q0 -8 210 -443q42 -80 42 -89h4q0 10 388 812h-168q37 71 37 80h173q0 8 74 163h-168q10 15 10 23h172q38 89 47 89h583v-275
h-168v-80h168v-1544h150v-117h-150v-182h-168v-42h168v-364h-578v364h-168v42h168v182h149v117h-149v466h-5q0 -9 -159 -336q-60 -122 -60 -130h144v-5q-37 -71 -51 -112h-154l-84 -182h-173q0 -8 -18 -42h168v-5l-173 -354h-5q-128 259 -172 359h-173q-14 34 -14 42h163v5
q-56 109 -84 177h145v5q-51 104 -51 112h-154q-103 227 -145 294h-84v-593h-168v-42h168v-49h-588zM168 2220v81h593q14 -32 37 -81h-630zM1428 962v-266h168v266h-168z" />
    <glyph glyph-name="N" unicode="N" horiz-adv-x="1980" 
d="M2030 -122v-78h-75v-94h-564q-12 7 -96 172h735zM1285 -102l-44 88h70v5q-18 32 -18 37h-80l-196 388h-93q-9 0 -33 60h89v5q-286 543 -299 574h-4v-205h74v-210h-74v-164h-94v-60h94v-388h74v-42h-74v-280h-584v280h75v42h-75v388h-93v60h93v164h75v210h-75v1190h-74
v280h588q123 -248 149 -280h65q42 -66 140 -262q11 -14 14 -14h66q5 0 163 -303h-75q200 -382 238 -462h5v462h75v303h-75v276h-75v280h584v-280h74v-276h75v-303h-75v-1433h75v-42h-75v-88h-670zM537 1764v-303h74v303h-74z" />
    <glyph glyph-name="O" unicode="O" horiz-adv-x="1859" 
d="M14 1931q12 57 42 132h117q105 247 527 247h457q304 0 434 -126q102 -92 135 -253h-1712zM1729 1915q3 -17 5 -34h-1728q1 16 5 34h1718zM1739 1831q2 -32 2 -67v-429h168v-61h-168v-294h-112v-172h112v-182h-112v-42h112v-332q0 -253 -122 -392h164q0 -6 -42 -42h-154
q-11 0 -94 -51q-107 -61 -392 -61h-345q-361 0 -471 108h-5v4h163q-37 33 -37 42h-168q-126 129 -126 374v350h-112v42h112v942h593v-233h168v-61h-168v-648h-112v-42h112v-168q0 -117 130 -117h182q131 0 131 112v173h-112v42h112v182h-112v172h112v294h168v61h-168v271
q0 112 -149 112h-145q-94 0 -126 -38q-23 -34 -23 -79v-6h-593v236h1627z" />
    <glyph glyph-name="P" unicode="P" horiz-adv-x="1873" 
d="M1678 2108q22 -33 30 -64h173q23 -57 42 -154h-168q9 -98 9 -238v-354h-131v-89q0 -143 -9 -233h131q-17 -118 -75 -224q-95 -128 -229 -164q-80 -37 -270 -37h-458v-355h168v-135h-168v-126h-130v-229h-593v229h131v1041h-131v322h131v163h168v61h-168v368h168v154h-168
v64h1547zM131 2141v48h-131v42h131v79h1050q233 0 364 -74v-5h-122q0 -5 56 -42h126q27 -24 48 -48h-1522zM723 1718v-196h168v-61h-168v-163h-130v-224h308q97 0 126 79q14 58 14 126v19h130v289q0 102 -70 121q-37 10 -79 10h-299z" />
    <glyph glyph-name="Q" unicode="Q" horiz-adv-x="1859" 
d="M719 2296h448q347 0 480 -163h145q6 0 33 -42h-150q80 -136 80 -257h-131l5 -9v-369h130v-1040h150v-257q0 -9 -10 -9h-144v-5q0 -141 -94 -266v-5l122 -186v-10q-17 -7 -448 -308q-32 37 -210 322h-411q-422 0 -532 266v5h-135q-24 68 -38 135h131q-9 73 -9 126v430
h-131v42h131v350h149v135h-149v275h-131v346l5 32h130v5q0 162 131 317q134 140 453 140zM593 1587v-131h130v-275h150v-135h-150v-350h-130v-42h130v-257q0 -112 117 -112h205q122 0 122 93v276h-131v42h131v760h-131v154q0 94 -154 94h-121q-136 0 -154 -52
q-14 -30 -14 -65zM1339 416v-266h150v266h-150z" />
    <glyph glyph-name="R" unicode="R" horiz-adv-x="1807" 
d="M1684 2130q47 -61 47 -72h-163q37 -95 37 -116h173q19 -97 19 -173v-705q0 -359 -271 -476q-80 -23 -103 -23q276 -569 276 -579h98q60 -127 60 -135h-88v-5q42 -82 79 -168h-649q-9 4 -93 173h93q-42 90 -74 135h-84q-11 7 -280 542h-5v-206h93v-23h-93v-462h-168v-159
h-574q-9 0 -9 10v149h168v462h93v23h-93v98q0 72 -5 196h-168v136h168v1190h-168v116h168v72h1516zM261 2149v59h-93v79q1 9 9 9h1027q266 0 397 -88h79q28 0 77 -59h-1496zM761 1704v-299h93v-345h224q126 0 126 149v401q0 94 -154 94h-289zM481 1405v-471h93v471h-93z" />
    <glyph glyph-name="S" unicode="S" horiz-adv-x="1826" 
d="M1781 1102q46 -62 72 -145q23 -107 23 -266v-37h-168v-425h-75l-4 -47v-32h74q-9 -61 -23 -126h107v-5q-19 -90 -93 -168h-112q-6 -25 -103 -89q-133 -70 -359 -70h-457q-435 0 -542 280q-42 126 -42 178h-74q-5 63 -5 79h75v182h-75v98h75v75h592v-75h-74v-98h74v-14
q0 -87 70 -103q24 -9 84 -9h145q145 0 145 93v229q0 23 -14 47h163v4q-31 38 -103 38h-368q-387 0 -504 284q-22 60 -32 122h1528zM243 1229v139h-168v382q0 100 23 210h117q0 25 46 117h-112q122 219 514 219h448q389 0 508 -205q0 -7 14 -14h103q18 0 51 -117h-107v-4
q23 -96 23 -187v-359h-196v200h-74v-200h-397v200h75v5q0 76 -103 89h-215q-126 0 -126 -112v-224h173q12 -80 98 -80h383q182 0 305 -59h-1383zM1662 1210q46 -28 83 -65h-1498q-3 33 -4 65h1419z" />
    <glyph glyph-name="T" unicode="T" horiz-adv-x="1891" 
d="M84 2292h1755q9 -2 9 -10v-135h93v-61h-93v-219h-75v-163h-588v-178h75v-798h93v-172h-93v-686h93v-182h-583v182h-93v686h93v172h-93v257h-131v303h131v238h-75v178h-602v163h75v415q1 10 9 10zM882 1288v-303h131v303h-131z" />
    <glyph glyph-name="U" unicode="U" horiz-adv-x="1821" 
d="M723 1684v-1156h-130v-126q0 -112 116 -112h206q121 0 121 93v145h131v443h112v266h-112v686h112v42h-112v89h-131v154h131v84h592v-84h-130v-154h130v-89h112v-42h-112v-686h112v-266h-112v-443h-130v-322h130v-5q0 -74 -32 -196h107v-5q-8 -37 -19 -37h-102
q-8 -1 -28 -51h107q-18 -40 -65 -80h-108q-133 -135 -443 -135h-462q-315 0 -439 135h108l-66 80h-112q-74 152 -74 294h-131v322h131v1156h592zM131 1750v173h112v42h-112v89h-131v154h131v84h592v-84h-130v-154h130v-89h112v-42h-112v-173h-592z" />
    <glyph glyph-name="V" unicode="V" horiz-adv-x="2241" 
d="M9 2301h598q12 0 60 -168h145q11 0 23 -61h-144v-4l98 -308h-108v-5l70 -224h117l75 -238h144q8 0 52 -135h-150l154 -481h5l154 481h154q19 73 42 135h-149q74 227 74 238h-107v5q70 214 70 224h117q168 541 182 541h597l9 -5q-322 -972 -326 -1003h144v-5l-42 -130
h-144q-11 0 -84 -248q-5 -3 -140 -420h-112l-94 -284h112l-65 -201h149q-60 -182 -60 -191h-154q-32 -117 -42 -117h-584q-163 501 -163 509h-117l-88 284h107v5l-215 663h150q-42 117 -42 135h-154l-75 238h-107q-11 0 -80 229h112q-74 218 -102 312h149q-19 48 -19 61
h-154q0 12 -51 163zM1619 1760v-229h112v229h-112z" />
    <glyph glyph-name="W" unicode="W" horiz-adv-x="2601" 
d="M270 624q-5 37 -13 85h2072l-14 -85h-2045zM254 728q-23 141 -63 374h-93l-28 191h93q-4 14 -74 443h186q-47 299 -61 376h638l58 -376h-182v-4q0 -22 70 -439h-93q28 -177 28 -191h70q48 160 70 191h88q70 216 94 275h168q23 71 23 80h-163v4l155 460h111
q61 -186 158 -464h168q24 -71 24 -80h-164v-4l196 -588h5l98 592h168q0 5 9 80h-163v4q45 297 72 460h638q-26 -161 -75 -464h168l-14 -80h-168l-137 -840h-2078zM1254 2158l39 115h4q16 -51 37 -115h-80zM1928 2158q20 115 27 143h630v-5q0 -7 -20 -138h-637zM19 2158
q-19 128 -19 143h625q12 0 34 -143h-640zM541 574v-536h94v536h1672l-114 -700h187q-14 -77 -14 -98h-182q-11 0 -19 -79h-634q-24 70 -24 79h182v5q-28 85 -28 93h-191l-173 523q-9 0 -112 -317q-4 -1 -130 -383h-635q-37 247 -56 341h-93q-41 277 -87 536h357z" />
    <glyph glyph-name="X" unicode="X" horiz-adv-x="2125" 
d="M51 2301h714q10 -3 108 -205h-150q19 -34 19 -42h154l159 -327q9 5 163 327h-145v4q16 38 24 38h140q9 3 107 205h719q0 -11 -94 -201v-4h-154q0 -9 -18 -42h149q-238 -474 -238 -481h163v-5q-107 -219 -116 -224h-159q-9 0 -37 -70h-98q-24 -54 -24 -60h89v-5
q-103 -201 -103 -215q75 -147 126 -261h-88v-5q98 -202 107 -205h84q9 0 84 -163h173l154 -322h-164v-5q76 -157 84 -159h159q9 0 33 -60h-164v-5l56 -112h-728q0 7 -51 117h163v4q-24 56 -32 56h-159q-9 0 -201 397h-4q-153 -311 -192 -397h164v-4q-25 -56 -33 -56h-159
q-9 0 -60 -117h-724q0 10 52 117h172q0 8 28 60h-168q322 643 322 649h-88v5q98 202 107 205h84q9 9 135 266q-102 211 -112 215h-84q-9 0 -32 60h88v5l-382 775h-154q0 8 -19 42h149q-98 191 -98 205zM873 1573v-229h168v229h-168zM1358 360v-322h168v322h-168z" />
    <glyph glyph-name="Y" unicode="Y" horiz-adv-x="2199" 
d="M1503 424v-116h93v-284h-93v-164h-224v-60h224v-98h-579q-9 0 -9 9v89h-224v60h224v164h93v284h-93v116h588zM915 455v418q0 14 -66 140h-228q-42 92 -117 229h224q-460 889 -467 891h-224q0 8 -37 79h224l-47 89l10 5h672q11 0 46 -94h-219v-4q33 -61 33 -75h228
l66 -145h98l102 -228h-88v-5q66 -136 84 -182h4l84 187h98q21 51 108 228h-94l70 145h-224v5q35 74 42 74h215q6 0 47 89l9 5h672l9 -5q-42 -85 -51 -89h-215q-8 -1 -46 -79h224q-75 -140 -75 -145h89v-4q-115 -224 -122 -224h-84q-12 -5 -144 -266q-315 -586 -322 -616
v-423h-588zM663 1988v-228h93v228h-93zM1153 1242v-229h224v229h-224z" />
    <glyph glyph-name="Z" unicode="Z" horiz-adv-x="2092" 
d="M75 2306h1918v-56h149v-154h-149v-332l-145 -186h145q-37 -50 -42 -61h-150q-5 0 -102 -126h-164q-21 -16 -228 -285h163v-4q-522 -662 -527 -663h-168q0 -7 -28 -42h163q-12 -21 -75 -98h1139q9 -1 9 -9v-374h150v-196q0 -9 -10 -9h-1264v205h-150v-205h-634
q-10 0 -10 9v537q0 20 98 135v5h-163q28 35 28 42h168q9 5 527 663v4h-163q215 276 229 285h168q0 11 98 126h144q5 0 47 56v5h-145l112 144h-1138v374h149v154h-149v56z" />
    </font>
</defs>
</svg>
